<svg width="40" height="40" viewBox="0 0 40 40" fill="none" xmlns="http://www.w3.org/2000/svg">
<path d="M14.938 12.5029C15.64 12.5029 16.278 12.5629 16.858 12.6909C17.435 12.8209 17.928 13.0209 18.343 13.3009C18.753 13.5809 19.076 13.9509 19.303 14.4209C19.528 14.8909 19.643 15.4709 19.643 16.1509C19.643 16.8909 19.473 17.5109 19.136 18.0109C18.798 18.5109 18.299 18.9109 17.634 19.2309C18.54 19.4909 19.21 19.9509 19.656 20.6009C20.104 21.2609 20.321 22.0509 20.321 22.9609C20.321 23.7109 20.191 24.3509 19.911 24.8909C19.631 25.4409 19.241 25.8909 18.751 26.2409C18.271 26.5889 17.701 26.8409 17.081 27.0079C16.471 27.1729 15.829 27.2619 15.171 27.2619H8V12.5099H14.938V12.5029ZM24.94 24.6649C25.38 25.0929 26.013 25.3079 26.834 25.3079C27.424 25.3079 27.934 25.1599 28.364 24.8609C28.788 24.5709 29.044 24.2509 29.144 23.9209H31.732C31.329 25.2009 30.684 26.1209 29.832 26.6709C28.982 27.2309 27.948 27.5009 26.752 27.5009C25.915 27.5009 25.168 27.3709 24.48 27.1009C23.807 26.8309 23.24 26.4509 22.76 25.9609C22.296 25.4709 21.937 24.8809 21.683 24.1909C21.43 23.5009 21.31 22.7409 21.31 21.9209C21.31 21.1179 21.445 20.3809 21.713 19.6909C21.983 18.9909 22.357 18.4109 22.833 17.9009C23.328 17.3909 23.896 17.0059 24.569 16.7069C25.242 16.4079 25.969 16.2739 26.789 16.2739C27.699 16.2739 28.479 16.4379 29.169 16.7969C29.839 17.1369 30.389 17.6169 30.829 18.1969C31.269 18.7829 31.579 19.4569 31.769 20.2169C31.959 20.9669 32.019 21.7569 31.979 22.5969H24.289C24.289 23.4369 24.569 24.2289 24.999 24.6619L24.919 24.6919L24.94 24.6649ZM14.7 24.7149C15.017 24.7149 15.32 24.6849 15.606 24.6219C15.896 24.5619 16.154 24.4569 16.369 24.3219C16.579 24.1869 16.759 23.9939 16.889 23.7389C17.019 23.4989 17.079 23.1689 17.079 22.7789C17.079 22.0289 16.859 21.4889 16.439 21.1589C16.009 20.8389 15.449 20.6789 14.749 20.6789H11.24V24.7289H14.7V24.6989V24.7149ZM28.307 19.0649C27.955 18.6799 27.367 18.4729 26.65 18.4729C26.182 18.4729 25.795 18.5469 25.484 18.7109C25.182 18.8609 24.934 19.0609 24.744 19.3009C24.554 19.5409 24.427 19.7809 24.352 20.0509C24.277 20.3109 24.232 20.5509 24.217 20.7609H28.979C28.909 20.0109 28.649 19.4609 28.299 19.0709V19.0809L28.307 19.0649ZM14.52 18.4499C15.094 18.4499 15.57 18.3159 15.945 18.0379C16.319 17.7679 16.499 17.3179 16.499 16.6999C16.499 16.3559 16.429 16.0749 16.319 15.8539C16.189 15.6339 16.019 15.4639 15.819 15.3419C15.609 15.2179 15.369 15.1319 15.099 15.0849C14.829 15.0319 14.539 15.0109 14.259 15.0109H11.23V18.4509H14.52V18.4499ZM23.618 13.4919H29.586V14.9459H23.618V13.4799V13.4899V13.4919Z" fill="#121212"/>
</svg>
