<svg width="41" height="40" viewBox="0 0 41 40" fill="none" xmlns="http://www.w3.org/2000/svg">
<rect x="0.5" width="40" height="40" rx="20" fill="#EA433A" fill-opacity="0.1"/>
<path d="M31.0066 14.178V13.6767C31.0066 12.7257 30.2284 11.9475 29.2773 11.9475L29.2768 11.948L29.2758 11.9487L29.2773 11.9475H11.6306L11.6374 11.9531L11.6306 11.948C10.6796 11.948 9.90137 12.7261 9.90137 13.6772V25.4898C9.90137 26.4408 10.6795 27.219 11.6306 27.219H12.2462H28.6093C30.4233 27.1979 30.9681 26.7486 31.0093 25.4912L31.0066 14.178ZM27.989 12.3708L20.426 17.9417L12.9122 12.3708H27.989ZM12.6738 16.6994L19.6794 21.5249L19.6865 21.5298L12.6698 26.4088L12.6738 16.6994ZM12.8549 26.7957L20.057 21.7877L20.1834 21.8756C20.256 21.9261 20.3406 21.9514 20.4252 21.9514C20.5091 21.9514 20.7965 21.7864 20.7965 21.7864L28.0006 26.7957H12.8549ZM28.1813 26.4058L21.1689 21.5299L25.0798 18.836L28.1813 16.6996V26.4058Z" fill="#FFA29D"/>
</svg>
