<svg width="24" height="24" viewBox="0 0 24 24" fill="none" xmlns="http://www.w3.org/2000/svg">
<path d="M22.5066 6.17799V5.6767C22.5066 4.72567 21.7284 3.94751 20.7773 3.94751L20.7768 3.94798L20.7758 3.94874L20.7773 3.94751H3.13059L3.13741 3.95305L3.13059 3.94798C2.17957 3.94798 1.40137 4.72613 1.40137 5.6772V17.4898C1.40137 18.4408 2.17953 19.219 3.13059 19.219H3.74617H20.1093C21.9233 19.1979 22.4681 18.7486 22.5093 17.4912L22.5066 6.17799ZM19.489 4.37079L11.926 9.94167L4.41216 4.37079H19.489ZM4.17381 8.69938L11.1794 13.5249L11.1865 13.5298L4.16979 18.4088L4.17381 8.69938ZM4.35489 18.7957L11.557 13.7877L11.6834 13.8756C11.756 13.9261 11.8406 13.9514 11.9252 13.9514C12.0091 13.9514 12.2965 13.7864 12.2965 13.7864L19.5006 18.7957H4.35489ZM19.6813 18.4058L12.6689 13.5299L16.5798 10.836L19.6813 8.69964V18.4058Z" fill="#121212"/>
</svg>
