<svg width="40" height="40" viewBox="0 0 40 40" fill="none" xmlns="http://www.w3.org/2000/svg">
<path d="M19.9365 15.0688C16.9736 15.0688 14.5186 17.4815 14.5186 20.4868C14.5186 23.4921 16.9313 25.9048 19.9365 25.9048C22.9418 25.9048 25.3545 23.4498 25.3545 20.4868C25.3545 17.5239 22.8995 15.0688 19.9365 15.0688ZM19.9365 23.9577C18.0318 23.9577 16.4656 22.3916 16.4656 20.4868C16.4656 18.5821 18.0318 17.0159 19.9365 17.0159C21.8413 17.0159 23.4074 18.5821 23.4074 20.4868C23.4074 22.3916 21.8413 23.9577 19.9365 23.9577Z" fill="#121212"/>
<path d="M25.5659 16.1694C26.2438 16.1694 26.7934 15.6198 26.7934 14.9419C26.7934 14.2639 26.2438 13.7144 25.5659 13.7144C24.888 13.7144 24.3384 14.2639 24.3384 14.9419C24.3384 15.6198 24.888 16.1694 25.5659 16.1694Z" fill="#121212"/>
<path d="M28.7406 11.7672C27.64 10.6243 26.0739 10.0317 24.2961 10.0317H15.5765C11.894 10.0317 9.43896 12.4868 9.43896 16.1693V24.8466C9.43896 26.6667 10.0316 28.2328 11.2167 29.3757C12.3596 30.4762 13.8834 31.0264 15.6189 31.0264H24.2538C26.0739 31.0264 27.5977 30.4339 28.6982 29.3757C29.8411 28.2751 30.4337 26.709 30.4337 24.8889V16.1693C30.4337 14.3915 29.8411 12.8677 28.7406 11.7672ZM28.5712 24.8889C28.5712 26.2011 28.1056 27.2593 27.3437 27.9788C26.5818 28.6984 25.5236 29.0794 24.2538 29.0794H15.6189C14.349 29.0794 13.2908 28.6984 12.5289 27.9788C11.767 27.2169 11.3861 26.1587 11.3861 24.8466V16.1693C11.3861 14.8995 11.767 13.8413 12.5289 13.0794C13.2485 12.3598 14.349 11.9788 15.6189 11.9788H24.3384C25.6083 11.9788 26.6665 12.3598 27.4284 13.1217C28.148 13.8836 28.5712 14.9418 28.5712 16.1693V24.8889Z" fill="#121212"/>
</svg>
