<svg width="40" height="40" viewBox="0 0 40 40" fill="none" xmlns="http://www.w3.org/2000/svg">
<rect width="40" height="40" rx="16" fill="#EA433A"/>
<path fill-rule="evenodd" clip-rule="evenodd" d="M23.4 10C23.6 11.1 23.1 12.2 22.5 13C21.9 13.8 20.8 14.5 19.7 14.4C19.5 13.3 20 12.3 20.6 11.5C21.3 10.7 22.4 10.1 23.4 10ZM26.6 27.4C27.1 26.6 27.4 26.1 27.8 25.2C24.7 24 24.2 19.6 27.3 18C26.4 16.8 25.1 16.2 23.8 16.2C22.9 16.2 22.3 16.4 21.7 16.6C21.2 16.8 20.8 16.9 20.3 16.9C19.7 16.9 19.3 16.7 18.7 16.5C18.1 16.3 17.5 16.1 16.8 16.1C15.4 16.1 13.9 16.9 13 18.4C11.7 20.4 11.9 24.3 14 27.5C14.9 28.7 15.9 30 17.2 30C17.8 30 18.1 29.8 18.5 29.7C19 29.5 19.5 29.3 20.3 29.3C21.2 29.3 21.6 29.5 22.1 29.7C22.5 29.9 22.8 30 23.4 30C24.8 30 25.8 28.5 26.6 27.4Z" stroke="white" stroke-width="1.5" stroke-miterlimit="10" stroke-linecap="round" stroke-linejoin="round"/>
</svg>
