<svg width="32" height="33" viewBox="0 0 32 33" fill="none" xmlns="http://www.w3.org/2000/svg">
<path d="M16 3.16536C23.3649 3.16536 29.3353 9.13583 29.3353 16.5008C29.3353 23.8657 23.3649 29.8361 16 29.8361C8.63502 29.8361 2.66455 23.8657 2.66455 16.5008C2.66455 9.13583 8.63502 3.16536 16 3.16536ZM19.9185 22.5004H12.0814C12.9508 25.7192 14.462 27.8361 16 27.8361C17.538 27.8361 19.0491 25.7192 19.9185 22.5004ZM10.011 22.5012L6.38106 22.5009C7.65884 24.5451 9.5701 26.1525 11.8399 27.0485C11.1436 25.9553 10.5689 24.5871 10.1463 23.0279L10.011 22.5012ZM25.6188 22.5009L21.9889 22.5012C21.5572 24.2795 20.9337 25.8339 20.1585 27.0485C22.2879 26.2085 24.1008 24.7432 25.3719 22.8791L25.6188 22.5009ZM9.45786 13.8332H4.98104L4.9747 13.8561C4.77192 14.7047 4.66455 15.5901 4.66455 16.5008C4.66455 17.9089 4.92134 19.2572 5.39064 20.5012L9.62152 20.5007C9.43179 19.2352 9.33122 17.8909 9.33122 16.5008C9.33122 15.5888 9.37451 14.6965 9.45786 13.8332ZM20.5292 13.8333H11.4707C11.38 14.6871 11.3312 15.58 11.3312 16.5008C11.3312 17.9135 11.4461 19.2605 11.6509 20.5009H20.3491C20.5539 19.2605 20.6687 17.9135 20.6687 16.5008C20.6687 15.58 20.6199 14.6871 20.5292 13.8333ZM27.0195 13.8321L22.542 13.8333C22.6255 14.6965 22.6687 15.5888 22.6687 16.5008C22.6687 17.8909 22.5681 19.2352 22.3784 20.5007L26.6092 20.5012C27.0785 19.2572 27.3353 17.9089 27.3353 16.5008C27.3353 15.5816 27.226 14.6879 27.0195 13.8321ZM11.8413 5.95297L11.8108 5.96459C9.08106 7.05087 6.87304 9.16728 5.66682 11.8338L9.73098 11.8343C10.1488 9.4972 10.8779 7.46264 11.8413 5.95297ZM16 5.16536L15.8457 5.17243C14.1585 5.32677 12.5285 7.99607 11.7716 11.8337H20.2284C19.4735 8.00681 17.8505 5.34175 16.1684 5.17379L16 5.16536ZM20.16 5.95305L20.3024 6.18517C21.1947 7.66847 21.8721 9.61497 22.2689 11.8343L26.3331 11.8338C25.1803 9.28523 23.1123 7.23919 20.5483 6.11475L20.16 5.95305Z" fill="#EA433A"/>
</svg>
