<svg width="40" height="40" viewBox="0 0 40 40" fill="none" xmlns="http://www.w3.org/2000/svg">
<path d="M10.4059 16.7119H14.6252V29.409H10.4059V16.7119ZM12.5438 10.5913C11.0997 10.5913 10.1562 11.5394 10.1562 12.7837C10.1562 14.0024 11.0721 14.9781 12.4886 14.9781H12.5155C13.9872 14.9781 14.9037 14.0024 14.9037 12.7837C14.876 11.5394 13.9872 10.5913 12.5438 10.5913ZM24.9846 16.4136C22.745 16.4136 21.7416 17.6455 21.1819 18.5094V16.7119H16.9614C17.0172 17.903 16.9614 29.409 16.9614 29.409H21.1819V22.318C21.1819 21.9382 21.2095 21.5599 21.3206 21.2878C21.6261 20.5297 22.3205 19.7445 23.4853 19.7445C25.0136 19.7445 25.6239 20.9094 25.6239 22.6155V29.4089H29.8438V22.1282C29.8438 18.2282 27.7624 16.4136 24.9846 16.4136Z" fill="#121212"/>
</svg>
