<svg width="40" height="40" viewBox="0 0 40 40" fill="none" xmlns="http://www.w3.org/2000/svg">
<rect width="40" height="40" rx="16" fill="#EA433A"/>
<path d="M28 15V25C28 29 27 30 23 30H17C13 30 12 29 12 25V15C12 11 13 10 17 10H23C27 10 28 11 28 15Z" stroke="white" stroke-width="1.5" stroke-linecap="round" stroke-linejoin="round"/>
<path d="M22 13.5H18" stroke="white" stroke-width="1.5" stroke-linecap="round" stroke-linejoin="round"/>
<path d="M20.0002 27.1C20.8562 27.1 21.5502 26.406 21.5502 25.55C21.5502 24.694 20.8562 24 20.0002 24C19.1442 24 18.4502 24.694 18.4502 25.55C18.4502 26.406 19.1442 27.1 20.0002 27.1Z" stroke="white" stroke-width="1.5" stroke-linecap="round" stroke-linejoin="round"/>
</svg>
