<svg width="40" height="40" viewBox="0 0 40 40" fill="none" xmlns="http://www.w3.org/2000/svg">
<rect width="40" height="40" rx="16" fill="#EA433A"/>
<path d="M11 30H29" stroke="white" stroke-width="1.5" stroke-linecap="round" stroke-linejoin="round"/>
<path d="M13.6 16.38H12C11.45 16.38 11 16.83 11 17.38V26C11 26.55 11.45 27 12 27H13.6C14.15 27 14.6 26.55 14.6 26V17.38C14.6 16.83 14.15 16.38 13.6 16.38Z" stroke="white" stroke-width="1.5" stroke-linecap="round" stroke-linejoin="round"/>
<path d="M20.8002 13.19H19.2002C18.6502 13.19 18.2002 13.64 18.2002 14.19V26C18.2002 26.55 18.6502 27 19.2002 27H20.8002C21.3502 27 21.8002 26.55 21.8002 26V14.19C21.8002 13.64 21.3502 13.19 20.8002 13.19Z" stroke="white" stroke-width="1.5" stroke-linecap="round" stroke-linejoin="round"/>
<path d="M28.0004 10H26.4004C25.8504 10 25.4004 10.45 25.4004 11V26C25.4004 26.55 25.8504 27 26.4004 27H28.0004C28.5504 27 29.0004 26.55 29.0004 26V11C29.0004 10.45 28.5504 10 28.0004 10Z" stroke="white" stroke-width="1.5" stroke-linecap="round" stroke-linejoin="round"/>
</svg>
