<svg width="41" height="40" viewBox="0 0 41 40" fill="none" xmlns="http://www.w3.org/2000/svg">
<rect x="0.5" width="40" height="40" rx="20" fill="#EA433A" fill-opacity="0.1"/>
<g clip-path="url(#clip0_277_4489)">
<path d="M15.125 18.795C16.565 21.625 18.88 23.94 21.715 25.38L23.915 23.175C24.19 22.9 24.585 22.82 24.93 22.93C26.05 23.3 27.255 23.5 28.5 23.5C29.055 23.5 29.5 23.945 29.5 24.5V28C29.5 28.555 29.055 29 28.5 29C19.11 29 11.5 21.39 11.5 12C11.5 11.445 11.95 11 12.5 11H16C16.555 11 17 11.445 17 12C17 13.245 17.2 14.45 17.57 15.57C17.68 15.915 17.6 16.31 17.325 16.585L15.125 18.795Z" fill="#FFA29D"/>
</g>
<defs>
<clipPath id="clip0_277_4489">
<rect width="24" height="24" fill="white" transform="translate(8.5 8)"/>
</clipPath>
</defs>
</svg>
