<svg width="40" height="40" viewBox="0 0 40 40" fill="none" xmlns="http://www.w3.org/2000/svg">
<rect width="40" height="40" rx="16" fill="#EA433A"/>
<g clip-path="url(#clip0_250_1891)">
<path d="M30.1625 27.5825L27.875 28.73L25.745 23.7575H19.25C18.395 23.7575 17.75 23.1125 17.75 22.2575V17.7575C17.75 16.9025 18.395 16.2575 19.25 16.2575C20.105 16.2575 20.75 16.9025 20.75 17.7575V20.7575H26V19.2575H22.25V17.7575C22.25 16.0775 20.93 14.7575 19.25 14.7575C17.57 14.7575 16.25 16.0775 16.25 17.7575V18.5075C12.53 18.5075 9.5 21.5375 9.5 25.2575C9.5 28.9775 12.53 32.0075 16.25 32.0075C19.4525 32.0075 22.145 29.7575 22.8275 26.7575H21.2825C20.6375 28.925 18.6275 30.5075 16.25 30.5075C13.355 30.5075 11 28.1525 11 25.2575C11 22.3625 13.355 20.0075 16.25 20.0075V22.2575C16.25 23.9375 17.57 25.2575 19.25 25.2575H24.755L27.125 30.785L30.8375 28.9325L30.17 27.59L30.1625 27.5825Z" fill="white"/>
<path d="M19.625 14C18.1775 14 17 12.8225 17 11.375C17 9.9275 18.1775 8.75 19.625 8.75C21.0725 8.75 22.25 9.9275 22.25 11.375C22.25 12.8225 21.0725 14 19.625 14ZM19.625 10.25C19.0025 10.25 18.5 10.7525 18.5 11.375C18.5 11.9975 19.0025 12.5 19.625 12.5C20.2475 12.5 20.75 11.9975 20.75 11.375C20.75 10.7525 20.2475 10.25 19.625 10.25Z" fill="white"/>
</g>
<defs>
<clipPath id="clip0_250_1891">
<rect width="24" height="24" fill="white" transform="translate(8 8)"/>
</clipPath>
</defs>
</svg>
