<svg width="40" height="40" viewBox="0 0 40 40" fill="none" xmlns="http://www.w3.org/2000/svg">
<rect width="40" height="40" rx="16" fill="#EA433A"/>
<path d="M18.7498 30.5H21.2698C22.2298 30.5 22.8498 29.82 22.6698 28.99L22.2598 27.1801H17.7598L17.3498 28.99C17.1698 29.77 17.8498 30.5 18.7498 30.5Z" stroke="white" stroke-width="1.5" stroke-linecap="round" stroke-linejoin="round"/>
<path d="M22.2601 27.1701L23.9901 25.63C24.9601 24.77 25.0001 24.17 24.2301 23.2L21.18 19.33C20.54 18.52 19.4901 18.52 18.8501 19.33L15.8001 23.2C15.0301 24.17 15.03 24.8 16.04 25.63L17.7701 27.1701" stroke="white" stroke-width="1.5" stroke-linecap="round" stroke-linejoin="round"/>
<path d="M20.0103 19.12V21.65" stroke="white" stroke-width="1.5" stroke-linecap="round" stroke-linejoin="round"/>
<path d="M20.52 13H19.52C18.97 13 18.52 12.55 18.52 12V11C18.52 10.45 18.97 10 19.52 10H20.52C21.07 10 21.52 10.45 21.52 11V12C21.52 12.55 21.07 13 20.52 13Z" stroke="white" stroke-width="1.5" stroke-linecap="round" stroke-linejoin="round"/>
<path d="M11.27 22.17H12.27C12.82 22.17 13.27 21.72 13.27 21.17V20.17C13.27 19.62 12.82 19.17 12.27 19.17H11.27C10.72 19.17 10.27 19.62 10.27 20.17V21.17C10.27 21.72 10.72 22.17 11.27 22.17Z" stroke="white" stroke-width="1.5" stroke-linecap="round" stroke-linejoin="round"/>
<path d="M28.73 22.17H27.73C27.18 22.17 26.73 21.72 26.73 21.17V20.17C26.73 19.62 27.18 19.17 27.73 19.17H28.73C29.28 19.17 29.73 19.62 29.73 20.17V21.17C29.73 21.72 29.28 22.17 28.73 22.17Z" stroke="white" stroke-width="1.5" stroke-linecap="round" stroke-linejoin="round"/>
<path d="M18.52 11.56C14.71 12.01 11.75 15.24 11.75 19.17" stroke="white" stroke-width="1.5" stroke-linecap="round" stroke-linejoin="round"/>
<path d="M28.25 19.17C28.25 15.25 25.31 12.03 21.52 11.56" stroke="white" stroke-width="1.5" stroke-linecap="round" stroke-linejoin="round"/>
</svg>
