<svg width="100" height="100" viewBox="0 0 100 100" fill="none" xmlns="http://www.w3.org/2000/svg">
    <g clip-path="url(#clip0_320_818)">
        <path fill-rule="evenodd" clip-rule="evenodd"
              d="M87.7875 31.614C84.4891 31.614 81.8187 34.2125 81.8187 37.4172V62.2586C81.8187 65.4633 84.4891 68.0617 87.7875 68.0617C91.0797 68.0617 93.75 65.4633 93.75 62.2586V37.4172C93.75 34.2133 91.0797 31.614 87.7875 31.614ZM12.2188 31.614C8.92031 31.614 6.25 34.2125 6.25 37.4172V62.2586C6.25 65.4633 8.92031 68.0617 12.2188 68.0617C15.5109 68.0617 18.1812 65.4633 18.1812 62.2586V37.4172C18.1812 34.2133 15.5109 31.614 12.2188 31.614ZM22.5914 31.614H22.1625V74.1945C22.1625 77.575 24.9836 80.3273 28.4633 80.3273H33.0063C32.8492 80.839 32.7648 81.3742 32.7648 81.9383V94.1976C32.7648 97.4023 35.4414 100.001 38.7336 100.001C42.0258 100.001 44.7023 97.4023 44.7023 94.1976V81.9375C44.7023 81.3734 44.6117 80.8383 44.4609 80.3265H55.5406C55.3898 80.8383 55.3047 81.3734 55.3047 81.9375V94.1969C55.3047 97.4015 57.975 100 61.2672 100C64.5656 100 67.2422 97.4015 67.2422 94.1969V81.9375C67.2422 81.3734 67.1516 80.8383 66.9945 80.3265H71.5437C75.0234 80.3265 77.8383 77.575 77.8383 74.1937V31.614H22.5914ZM63.6953 8.37185L64.807 6.73748L65.9188 5.12654L68.3953 1.50466C68.7031 1.05779 68.5766 0.457788 68.1172 0.164038C67.6641 -0.135962 67.0422 -0.0125248 66.7461 0.43435L62.9641 5.94373L61.8289 7.60154C58.2344 6.24373 54.2289 5.48513 50 5.48513C45.7773 5.48513 41.7656 6.24373 38.1711 7.60154L37.0414 5.94373L35.9234 4.31482L33.2656 0.43435C32.9578 -0.0125248 32.3414 -0.129712 31.882 0.164038C31.4289 0.457788 31.3023 1.05779 31.6039 1.50466L34.0805 5.12654L35.1922 6.73748L36.3102 8.37185C27.8703 12.1992 22.1617 19.4492 22.1617 27.7453H77.8367C77.8375 19.4492 72.1289 12.2 63.6953 8.37185ZM38.0688 20.0015C36.4195 20.0015 35.0844 18.7023 35.0844 17.0969C35.0844 15.4914 36.4195 14.1984 38.0688 14.1984C39.718 14.1984 41.0531 15.4922 41.0531 17.0969C41.0531 18.7023 39.718 20.0015 38.0688 20.0015ZM61.9313 20.0015C60.282 20.0015 58.9469 18.7023 58.9469 17.0969C58.9469 15.4914 60.282 14.1984 61.9313 14.1984C63.5805 14.1984 64.9156 15.4922 64.9156 17.0969C64.9156 18.7023 63.5805 20.0015 61.9313 20.0015Z"
              fill="#95CF00"/>
    </g>
    <defs>
        <clipPath id="clip0_320_818">
            <rect width="100" height="100" fill="white"/>
        </clipPath>
    </defs>
</svg>
