<svg width="100" height="100" viewBox="0 0 100 100" fill="none" xmlns="http://www.w3.org/2000/svg">
    <g clip-path="url(#clip0_320_843)">
        <path d="M0 50C0 22.3854 22.3854 0 50 0C77.6146 0 100 22.3854 100 50C100 77.6146 77.6146 100 50 100C22.3854 100 0 77.6146 0 50Z"
              fill="#333333"/>
        <path d="M40 80C42.6522 80 45.1957 78.9464 47.0711 77.0711C48.9464 75.1957 50 72.6522 50 70V60H40C37.3478 60 34.8043 61.0536 32.9289 62.9289C31.0536 64.8043 30 67.3478 30 70C30 72.6522 31.0536 75.1957 32.9289 77.0711C34.8043 78.9464 37.3478 80 40 80Z"
              fill="#0ACF83"/>
        <path d="M30 50C30 47.3478 31.0536 44.8043 32.9289 42.9289C34.8043 41.0536 37.3478 40 40 40H50V60H40C38.6868 60 37.3864 59.7413 36.1732 59.2388C34.9599 58.7362 33.8575 57.9996 32.9289 57.0711C32.0003 56.1425 31.2638 55.0401 30.7612 53.8268C30.2587 52.6136 30 51.3132 30 50Z"
              fill="#A259FF"/>
        <path d="M30 30C30 27.3478 31.0536 24.8043 32.9289 22.9289C34.8043 21.0536 37.3478 20 40 20H50V40H40C37.3478 40 34.8043 38.9464 32.9289 37.0711C31.0536 35.1957 30 32.6522 30 30Z"
              fill="#F24E1E"/>
        <path d="M50 20H60C62.6522 20 65.1957 21.0536 67.0711 22.9289C68.9464 24.8043 70 27.3478 70 30C70 32.6522 68.9464 35.1957 67.0711 37.0711C65.1957 38.9464 62.6522 40 60 40H50V20Z"
              fill="#FF7262"/>
        <path d="M70 50C70 52.6522 68.9464 55.1957 67.0711 57.0711C65.1957 58.9464 62.6522 60 60 60C57.3478 60 54.8043 58.9464 52.9289 57.0711C51.0536 55.1957 50 52.6522 50 50C50 47.3478 51.0536 44.8043 52.9289 42.9289C54.8043 41.0536 57.3478 40 60 40C62.6522 40 65.1957 41.0536 67.0711 42.9289C68.9464 44.8043 70 47.3478 70 50Z"
              fill="#1ABCFE"/>
    </g>
    <defs>
        <clipPath id="clip0_320_843">
            <rect width="100" height="100" fill="white"/>
        </clipPath>
    </defs>
</svg>
