<svg width="100" height="100" viewBox="0 0 100 100" fill="none" xmlns="http://www.w3.org/2000/svg">
    <path d="M8.06253 37.277H0.241699V76.5187H8.06253V37.277Z" fill="#241F20"/>
    <path d="M8.06253 23.6937H0.241699V31.7896H8.06253V23.6937Z" fill="#241F20"/>
    <path d="M36.4708 23.6937C23.8542 23.6937 13.625 33.9229 13.625 46.5396V53.2271H13.6479C13.6458 53.3771 13.625 53.525 13.625 53.675C13.625 66.2916 23.8542 76.5208 36.4708 76.5208C48.5542 76.5208 58.4208 67.1291 59.2354 55.2521H59.3167V46.5396C59.3187 33.9229 49.0875 23.6937 36.4708 23.6937ZM50.0417 57.9958L49.9854 58.0125C49.4208 64.6896 43.8292 69.9354 37.0063 69.9354C31.3229 69.9354 26.5021 66.2916 24.7208 61.2166C24.4583 60.6791 24.2187 60.0875 24.0312 59.3687C22.6333 53.9521 22.8604 48.8708 23.2937 45.55C23.2937 45.5458 23.2937 45.5416 23.2937 45.5375C23.6271 40.3521 24.9667 37.9166 24.9667 37.9166L25.0042 37.9583C26.9583 33.2229 31.5667 29.8666 37.0063 29.8666C43.7833 29.8666 49.3479 35.0375 49.9792 41.65C49.9792 41.6541 49.9792 41.6562 49.9813 41.6604C51.1542 51.5333 50.0417 57.9958 50.0417 57.9958Z"
          fill="#241F20"/>
    <path d="M98.7251 55.9375C98.723 55.9312 98.7126 55.925 98.7105 55.9187C97.0001 51.275 92.6292 48.4021 82.3834 45.8771C69.3938 42.675 70.4022 32.9791 79.273 30.6C88.1459 28.2229 97.4772 36.7291 97.4772 36.7291V31.7896V30.2333V26.9396C97.4772 26.9396 76.8959 13.1291 65.6438 31.1479C60.3855 41.9291 65.9772 51.2604 78.2001 53.4708L78.1709 53.4875C78.1709 53.4875 90.2501 54.6583 90.2501 63.8041C90.2501 68.6396 86.2105 69.8854 82.4001 69.9958C77.2334 69.8729 72.9751 67.6917 71.9418 67.1146L71.8126 67.0417C71.7709 67.0187 71.698 66.9771 71.698 66.9771V66.9792L63.6667 62.4354V73.9604C63.6667 73.9604 81.2876 82.7417 91.9897 74.7833C102.692 66.825 99.4668 57.5604 98.7251 55.9375Z"
          fill="#241F20"/>
</svg>
