<svg width="100" height="100" viewBox="0 0 100 100" fill="none" xmlns="http://www.w3.org/2000/svg">
    <path d="M94.9214 5.07831H5.07849V94.9217H94.9214V5.07831Z" fill="#F0DB4F"/>
    <path d="M45.2887 58.2991C45.2887 67.0426 40.1547 71.0334 32.6742 71.0334C25.9162 71.0334 22.0057 67.5442 20 63.3129L26.8785 59.1616C28.2021 61.5078 29.4055 63.493 32.3133 63.493C35.0807 63.493 36.8459 62.4102 36.8459 58.1789V29.4809H45.2887V58.2991Z"
          fill="#323330"/>
    <path d="M65.2627 71.0335C57.4215 71.0335 52.3478 67.3033 49.881 62.4103L56.7598 58.4392C58.5646 61.3874 60.9309 63.5732 65.0822 63.5732C68.5717 63.5732 70.8174 61.8286 70.8174 59.4023C70.8174 56.5142 68.5314 55.4919 64.6611 53.787L62.5555 52.8847C56.459 50.2976 52.4279 47.0286 52.4279 40.1503C52.4279 33.813 57.2609 28.9999 64.781 28.9999C70.1556 28.9999 74.006 30.865 76.7736 35.7583L70.1957 39.9697C68.7519 37.3826 67.1877 36.3601 64.7611 36.3601C62.2943 36.3601 60.7301 37.9245 60.7301 39.9697C60.7301 42.4966 62.2943 43.5197 65.9242 45.1035L68.0297 46.006C75.2092 49.0744 79.24 52.2232 79.24 59.2822C79.2404 66.8622 73.264 71.0335 65.2627 71.0335Z"
          fill="#323330"/>
</svg>
